#N canvas 152 307 528 329 10;
#X obj 92 240 dac~;
#X obj 131 80 adc~;
#X obj 168 145 *~;
#X obj 196 105 osc~ 30;
#X obj 111 173 *~ 0.8;
#X connect 1 0 2 0;
#X connect 1 1 2 0;
#X connect 2 0 4 0;
#X connect 3 0 2 1;
#X connect 4 0 0 0;
#X connect 4 0 0 1;
