#N canvas 503 299 528 329 10;
#X obj 195 32 osc~ 220;
#X obj 91 167 dac~;
#X obj 64 14 adc~;
#X obj 167 72 *~;
#X floatatom 204 4 5 0 0 0 - - -, f 5;
#X obj 110 100 *~ 0.1;
#X connect 0 0 3 1;
#X connect 2 0 3 0;
#X connect 3 0 5 0;
#X connect 4 0 0 0;
#X connect 5 0 1 0;
#X connect 5 0 1 1;
